<svg xmlns="http://www.w3.org/2000/svg" width="340" height="200" viewBox="0 0 340 200">
  <rect width="340" height="200" rx="12" fill="#0d1117" stroke="#30363d" stroke-width="1"/>
  <!-- GitHub icon -->
  <path d="M28 32a16 16 0 0 0-5.06 31.17c.8.15 1.09-.35 1.09-.77 0-.38-.01-1.64-.02-2.97-4.45.97-5.39-1.88-5.39-1.88-.73-1.85-1.78-2.34-1.78-2.34-1.45-.99.11-.97.11-.97 1.6.11 2.45 1.65 2.45 1.65 1.43 2.44 3.74 1.74 4.65 1.33.15-1.03.56-1.74 1.01-2.14-3.55-.4-7.29-1.78-7.29-7.9 0-1.75.62-3.18 1.65-4.3-.17-.4-.71-2.03.16-4.23 0 0 1.34-.43 4.4 1.64a15.3 15.3 0 0 1 8.01 0c3.05-2.07 4.39-1.64 4.39-1.64.87 2.2.33 3.83.16 4.23 1.03 1.12 1.65 2.55 1.65 4.3 0 6.14-3.74 7.49-7.31 7.89.58.5 1.09 1.48 1.09 2.98 0 2.15-.02 3.88-.02 4.41 0 .43.29.93 1.1.77A16 16 0 0 0 28 32z" transform="translate(-4, -8)" fill="#8b949e"/>
  <!-- Repo name -->
  <text x="44" y="40" font-family="system-ui, -apple-system, sans-serif" font-size="13" fill="#58a6ff">clawdreyhepburn</text>
  <text x="44" y="40" font-family="system-ui, -apple-system, sans-serif" font-size="13" fill="#8b949e" dx="118"> / </text>
  <text x="44" y="40" font-family="system-ui, -apple-system, sans-serif" font-size="13" fill="#58a6ff" dx="128" font-weight="600">mcp-exfil-poc</text>
  <!-- Description -->
  <text x="24" y="72" font-family="system-ui, -apple-system, sans-serif" font-size="12" fill="#8b949e">PoC: MCP sampling exfiltration — session history,</text>
  <text x="24" y="90" font-family="system-ui, -apple-system, sans-serif" font-size="12" fill="#8b949e">long-term memory, and cross-server data</text>
  <!-- Language dot + label -->
  <circle cx="30" cy="168" r="6" fill="#f1e05a"/>
  <text x="42" y="172" font-family="system-ui, -apple-system, sans-serif" font-size="12" fill="#8b949e">JavaScript</text>

  <!-- Public badge -->
  <rect x="244" y="22" width="72" height="22" rx="11" fill="none" stroke="#30363d" stroke-width="1"/>
  <text x="280" y="37" font-family="system-ui, -apple-system, sans-serif" font-size="11" fill="#8b949e" text-anchor="middle">Public</text>
</svg>